<svg width="1200" height="675" viewBox="0 0 1200 675" fill="none" xmlns="http://www.w3.org/2000/svg">
<rect width="1200" height="675" fill="#0F0F15"/>
<path d="M499.4 338.369C499.082 371.78 479.168 403.364 446.351 416.957C413.534 430.55 377.12 422.299 353.269 398.898L499.4 338.369Z" fill="white"/>
<path d="M380.602 258.224C424.435 240.068 474.687 260.883 492.843 304.716C495.503 311.136 497.325 317.695 498.362 324.27L344.035 388.194C340.119 382.812 336.77 376.886 334.11 370.465C315.954 326.632 336.769 276.38 380.602 258.224Z" fill="white"/>
<path d="M634.783 270.477C649.436 270.477 660.79 273.609 668.843 279.873C677.009 286.025 681.875 294.917 683.441 306.55H665.152C663.922 299.392 660.622 294.078 655.253 290.611C649.884 287.143 643.116 285.41 634.951 285.41C626.562 285.41 619.906 287.087 614.984 290.443C610.063 293.799 607.602 298.497 607.602 304.537C607.602 308.788 608.832 312.255 611.293 314.94C613.866 317.624 617.333 319.749 621.696 321.315C626.17 322.77 632.154 324.28 639.649 325.846C650.051 327.859 658.553 330.208 665.152 332.893C671.752 335.465 677.121 339.38 681.259 344.638C685.398 349.895 687.467 357.054 687.467 366.114C687.467 374.168 685.454 381.103 681.427 386.919C677.4 392.624 671.752 397.042 664.481 400.174C657.21 403.194 648.877 404.704 639.481 404.704C622.031 404.704 608.553 400.622 599.045 392.456C589.649 384.179 584.615 373.161 583.944 359.403H602.904C603.911 369.47 607.434 376.964 613.474 381.886C619.627 386.807 628.351 389.268 639.649 389.268C648.262 389.268 655.253 387.423 660.622 383.731C666.103 379.928 668.843 374.503 668.843 367.456C668.843 362.311 667.389 358.228 664.481 355.208C661.573 352.076 657.658 349.671 652.736 347.993C647.926 346.315 641.047 344.47 632.098 342.456C622.814 340.443 615.208 338.206 609.28 335.745C603.351 333.284 598.486 329.705 594.683 325.007C590.991 320.197 589.146 313.821 589.146 305.879C589.146 298.497 591.047 292.177 594.85 286.92C598.653 281.551 603.967 277.468 610.79 274.671C617.725 271.875 625.723 270.477 634.783 270.477Z" fill="white"/>
<path d="M720.394 402.02H702.105V305.376H720.394V402.02Z" fill="white"/>
<path d="M843.42 302.691C852.481 302.691 859.64 305.656 864.897 311.584C870.266 317.512 872.951 325.678 872.951 336.081V402.02H854.662V338.43C854.662 332.725 853.264 327.915 850.467 324C847.783 320.085 843.588 318.128 837.884 318.128C833.633 318.128 829.83 319.246 826.474 321.483C823.119 323.72 820.49 326.852 818.588 330.879C816.687 334.794 815.736 339.213 815.736 344.134V402.02H797.448V338.43C797.448 332.613 796.105 327.803 793.421 324C790.736 320.085 786.597 318.128 781.005 318.128C776.754 318.128 772.895 319.302 769.427 321.651C765.96 323.888 763.219 327.02 761.206 331.047C759.304 334.962 758.354 339.324 758.354 344.134V402.02H740.065V305.376H758.186V318.945C759.097 317.404 760.104 315.957 761.206 314.604C767.694 306.662 776.363 302.691 787.213 302.691C795.937 302.691 802.873 305.656 808.018 311.584C810.198 314.049 811.914 316.937 813.171 320.245C814.307 318.146 815.609 316.209 817.078 314.436C823.566 306.606 832.347 302.691 843.42 302.691Z" fill="white"/>
<path d="M711.333 265.779C714.689 265.779 717.486 266.953 719.723 269.302C722.072 271.651 723.246 274.504 723.246 277.859C723.246 281.215 722.072 284.067 719.723 286.416C717.486 288.765 714.689 289.94 711.333 289.94C707.978 289.94 705.125 288.765 702.776 286.416C700.427 284.067 699.253 281.215 699.253 277.859C699.253 274.504 700.427 271.651 702.776 269.302C705.125 266.953 707.978 265.779 711.333 265.779Z" fill="white"/>
</svg>
