<?xml version="1.0" encoding="UTF-8"?>
<svg id="Layer_3" data-name="Layer 3" xmlns="http://www.w3.org/2000/svg" viewBox="0 0 3322.93 752.69">
  <path d="m135.73,310.73c-22,0-41.49-3.97-58.47-11.9-16.98-7.94-31.18-18.79-42.6-32.58-11.42-13.78-20.05-29.51-25.89-47.19S0,182.65,0,162.89c0-23.67,3.9-44.83,11.69-63.48,7.8-18.66,18.45-34.32,31.95-46.99s28.75-22.34,45.73-29.03c16.98-6.68,34.66-10.02,53.04-10.02,14.2,0,28.12,1.46,41.76,4.39,13.64,2.92,26.17,6.75,37.59,11.49v70.58h-12.11l-26.31-59.31c-6.4-4.18-12.88-7.52-19.42-10.02-6.54-2.51-14.13-3.76-22.76-3.76-13.36,0-25.27,4.59-35.71,13.78-10.44,9.19-18.65,23.11-24.64,41.76-5.99,18.66-8.98,42.46-8.98,71.42,0,23.11,1.95,43.51,5.85,61.19,3.9,17.68,9.05,32.51,15.45,44.48s13.64,21.02,21.72,27.15,16.43,9.19,25.06,9.19c11.69,0,22-3.34,30.91-10.02l-5.01,14.2v-105.67l-25.06-7.1v-12.11h101.49v12.11l-17.12,5.85v98.56l-12.95,4.59c-10.02,3.34-21.72,6.61-35.08,9.82-13.36,3.2-27.15,4.8-41.35,4.8h0Z" style="fill: #fff;"/>
  <polygon points="243.73 304.88 243.73 293.61 261.69 286.92 261.69 45.94 242.06 31.32 242.06 25.06 320.58 0 320.58 286.92 338.54 293.61 338.54 304.88 243.73 304.88" style="fill: #fff;"/>
  <path d="m443.03,310.73c-19.21,0-36.47-4.59-51.79-13.78-15.31-9.19-27.5-22-36.54-38.42-9.05-16.43-13.57-35.36-13.57-56.8,0-22.83,4.66-42.81,13.99-59.93,9.33-17.12,21.72-30.42,37.17-39.89,15.45-9.47,32.23-14.2,50.33-14.2,19.77,0,37.24,4.73,52.41,14.2,15.17,9.47,27.22,22.34,36.13,38.63s13.36,35.01,13.36,56.17c0,22.83-4.66,42.81-13.99,59.93s-21.65,30.42-36.96,39.89c-15.31,9.47-32.16,14.2-50.54,14.2h0Zm-4.59-209.66c-7.52,0-13.85,3.41-19,10.23-5.15,6.82-9.12,16.43-11.9,28.82-2.78,12.39-4.18,26.94-4.18,43.64,0,21.44,1.74,40.79,5.22,58.05s8.49,30.84,15.04,40.72c6.54,9.88,14.27,14.83,23.18,14.83,7.52,0,13.85-3.41,19-10.23s9.12-16.43,11.9-28.82c2.78-12.39,4.18-27.08,4.18-44.06,0-21.72-1.74-41.07-5.22-58.05s-8.49-30.42-15.04-40.3-14.27-14.83-23.18-14.83h0Z" style="fill: #fff;"/>
  <path d="m638.24,311.56c-11.97,0-23.67-1.18-35.08-3.55-11.42-2.37-21.44-5.22-30.07-8.56l-10.86-4.18V45.94l-19.63-14.62v-6.26L621.12,0v284.42c2.78,2.78,6.75,5.36,11.9,7.73,5.15,2.37,10.79,3.55,16.91,3.55,8.91,0,16.85-3.55,23.81-10.65,6.96-7.1,12.53-17.4,16.71-30.91,4.18-13.5,6.26-29.58,6.26-48.24s-2.16-33.34-6.47-46.57c-4.32-13.23-10.09-23.46-17.33-30.7-7.24-7.24-15.31-10.86-24.22-10.86-5.85,0-11,.97-15.45,2.92s-8.14,4.46-11.07,7.52c-2.92,3.06-5.36,6.13-7.31,9.19l.84-10.02c2.78-5.57,6.89-11.42,12.32-17.54,5.43-6.13,12.25-11.28,20.46-15.45,8.21-4.18,17.89-6.26,29.03-6.26,12.53,0,24.92,3.62,37.17,10.86s22.48,18.52,30.7,33.83c8.21,15.31,12.32,34.94,12.32,58.89,0,18.66-3.48,35.36-10.44,50.12-6.96,14.76-16.15,27.36-27.56,37.8-11.42,10.44-24.22,18.38-38.42,23.81-14.2,5.43-28.54,8.14-43.02,8.14l-.02-.02Z" style="fill: #fff;"/>
  <path d="m818,310.73c-8.91,0-17.26-2.09-25.06-6.26-7.8-4.18-14.13-10.09-19-17.75s-7.31-16.64-7.31-26.94c0-11.14,3.06-20.81,9.19-29.03,6.13-8.21,14.06-15.1,23.81-20.67,9.75-5.57,20.19-10.02,31.32-13.36l55.96-17.96,5.85,9.61-40.51,15.45c-10.58,4.45-18.45,10.58-23.6,18.38s-7.73,16.85-7.73,27.15c0,8.91,2.23,16.43,6.68,22.55,4.45,6.13,11,9.19,19.63,9.19,6.4,0,12.25-2.02,17.54-6.06s9.47-8.84,12.53-14.41v14.62c-6.96,9.19-14.97,17.4-24.01,24.64-9.05,7.24-20.81,10.86-35.29,10.86h0Zm89.38-1.25c-8.63,0-15.73-2.3-21.3-6.89-5.57-4.59-8.35-11.62-8.35-21.09v-4.18h-4.59l2.09-5.85v-130.31c-1.39-11.69-4.94-20.33-10.65-25.89-5.71-5.57-12.46-8.35-20.26-8.35-3.9,0-7.66.49-11.28,1.46s-6.68,2.3-9.19,3.97l-.84,44.27c-2.78,1.95-6.4,3.48-10.86,4.59-4.45,1.11-9.19,1.67-14.2,1.67-8.35,0-14.76-2.3-19.21-6.89s-6.68-9.95-6.68-16.08c0-6.96,2.65-13.57,7.94-19.84,5.29-6.26,12.39-11.76,21.3-16.5,8.91-4.73,18.72-8.56,29.44-11.49,10.72-2.92,21.23-4.39,31.53-4.39,15.87,0,29.03,2.51,39.47,7.52,10.44,5.01,18.24,12.53,23.39,22.55s7.73,22.41,7.73,37.17v122.79c.56,2.51,1.53,4.46,2.92,5.85s4.04,2.09,7.94,2.09h10.02v10.86c-1.11.84-3.9,2.3-8.35,4.38-4.45,2.09-10.02,4.04-16.71,5.85-6.68,1.81-13.78,2.71-21.3,2.71v.02Z" style="fill: #fff;"/>
  <polygon points="964.01 304.88 964.01 293.61 981.96 286.92 981.96 45.94 962.33 31.32 962.33 25.06 1040.85 0 1040.85 286.92 1058.81 293.61 1058.81 304.88 964.01 304.88" style="fill: #fff;"/>
  <polygon points="1116.86 304.88 1116.86 292.35 1139.41 285.67 1139.41 38.42 1116.86 31.32 1116.86 19.21 1225.44 19.21 1225.44 31.32 1203.31 38.42 1203.31 285.67 1225.44 292.35 1225.44 304.88 1116.86 304.88" style="fill: #fff;"/>
  <path d="m1234.46,304.88v-11.28l17.96-6.68v-154.11l-20.46-15.87v-5.85l74.76-24.22h1.67v41.35h2.92v158.71l17.96,6.68v11.28h-94.81Zm121.54,0v-11.28l18.79-6.68v-127.38c-.28-6.96-1.18-13.23-2.71-18.79-1.53-5.57-4.18-10.02-7.94-13.36s-8.98-5.01-15.66-5.01c-8.63,0-16.57,2.23-23.81,6.68-7.24,4.46-13.09,8.77-17.54,12.95l-.84-5.85c1.67-3.62,4.52-8.07,8.56-13.36,4.04-5.29,9.12-10.65,15.24-16.08,6.13-5.43,13.3-9.95,21.51-13.57s17.47-5.43,27.77-5.43c15.31,0,28.12,5.22,38.42,15.66,10.3,10.44,15.45,25.55,15.45,45.32v138.24l18.38,6.68v11.28h-95.64l.02-.02Z" style="fill: #fff;"/>
  <polygon points="1551.21 306.97 1522.81 306.97 1451.39 111.93 1437.19 105.67 1437.19 93.97 1539.1 93.97 1539.1 105.67 1514.87 111.93 1557.47 245.99 1603 113.18 1580.86 105.67 1580.86 93.97 1636.83 93.97 1636.83 105.67 1622.63 112.77 1551.21 306.97" style="fill: #fff;"/>
  <path d="m1720.94,310.73c-15.87,0-30-3.06-42.39-9.19s-22.9-14.48-31.53-25.06c-8.63-10.58-15.31-22.55-20.05-35.92-4.73-13.36-7.1-27.01-7.1-40.93,0-22,4.59-41.42,13.78-58.26s21.16-30,35.92-39.47,30.63-14.2,47.61-14.2c21.16,0,38.77,7.8,52.83,23.39s23.18,36.75,27.36,63.48h-134.9v-14.62h88.54c-2.23-13.92-5.15-25.06-8.77-33.41-3.62-8.35-7.94-14.41-12.95-18.17-5.01-3.76-10.86-5.64-17.54-5.64-11.69,0-21.02,6.75-27.98,20.26-6.96,13.5-10.44,30.56-10.44,51.16s3.27,37.66,9.81,52,15.38,25.34,26.52,32.99c11.14,7.66,23.81,11.49,38.01,11.49,8.35,0,16.57-1.04,24.64-3.13,8.07-2.09,15.59-5.08,22.55-8.98v18.38c-6.96,9.19-16.91,17.12-29.86,23.81-12.95,6.68-27.63,10.02-44.06,10.02h0Z" style="fill: #fff;"/>
  <path d="m1871.54,311.56c-11.14,0-21.65-1.04-31.53-3.13-9.88-2.09-19.14-4.66-27.77-7.73l-1.67-59.72h10.02l21.72,48.45c3.34,2.51,7.52,4.52,12.53,6.06,5.01,1.53,10.44,2.3,16.29,2.3,11.42,0,20.19-3.34,26.31-10.02,6.13-6.68,9.19-14.76,9.19-24.22,0-8.63-2.09-15.52-6.26-20.67-4.18-5.15-9.33-9.12-15.45-11.9l-39.26-18.38c-10.02-4.73-18.31-12.18-24.85-22.34-6.54-10.16-9.81-21.79-9.81-34.87,0-13.92,3.48-25.96,10.44-36.13,6.96-10.16,16.36-18.03,28.19-23.6,11.83-5.57,24.99-8.35,39.47-8.35,9.19,0,18.52,1.11,27.98,3.34,9.47,2.23,18.65,5.15,27.56,8.77v50.95h-10.02l-20.46-42.6c-3.9-2.51-7.87-4.32-11.9-5.43-4.04-1.11-8-1.67-11.9-1.67-8.63,0-15.73,3.06-21.3,9.19s-8.35,13.64-8.35,22.55,2.09,15.31,6.26,20.05c4.18,4.73,9.05,8.49,14.62,11.28l39.26,18.38c10.3,4.73,18.79,11.83,25.48,21.3,6.68,9.47,10.02,21.16,10.02,35.08s-3.83,27.15-11.49,38.01-17.82,19.42-30.49,25.69-26.94,9.4-42.81,9.4l-.02-.04Z" style="fill: #fff;"/>
  <path d="m2039.44,117.78v-23.81h58.47v23.81h-58.47Zm2.51,192.54c-11.97,0-22.27-2.09-30.91-6.26-8.63-4.18-15.31-9.4-20.05-15.66-4.73-6.26-7.1-12.88-7.1-19.84l.84-151.19h-25.48v-15.03l29.24-8.77,46.78-42.18h7.94v212.16c1.11,5.01,4.32,9.12,9.61,12.32s11.97,4.8,20.05,4.8c4.18,0,8.77-.42,13.78-1.25,5.01-.84,9.05-1.95,12.11-3.34v15.87c-7.52,4.73-15.87,8.98-25.06,12.74-9.19,3.76-19.77,5.64-31.74,5.64h-.01Z" style="fill: #fff;"/>
  <path d="m2160.22,66.82c-8.63,0-16.01-2.92-22.14-8.77-6.13-5.85-9.19-13.09-9.19-21.72,0-8.07,3.06-15.17,9.19-21.3,6.13-6.13,13.5-9.19,22.14-9.19s16.36,3.06,22.34,9.19c5.99,6.13,8.98,13.23,8.98,21.3,0,8.63-2.99,15.87-8.98,21.72-5.99,5.85-13.43,8.77-22.34,8.77Z" style="fill: #fff;"/>
  <polygon points="2112.19 304.88 2112.19 293.61 2130.15 286.92 2130.15 132.81 2109.69 116.94 2109.69 111.09 2189.04 86.04 2189.04 286.92 2207 293.61 2207 304.88 2112.19 304.88" style="fill: #fff;"/>
  <path d="m2295.71,101.07c-8.63,0-15.17,4.39-19.63,13.16-4.46,8.77-6.68,20.81-6.68,36.13,0,13.36,1.18,25.13,3.55,35.29,2.37,10.16,5.92,18.17,10.65,24.02s10.72,8.77,17.96,8.77c8.35,0,15.04-4.39,20.05-13.16s7.52-21.37,7.52-37.8c0-13.36-1.32-25.06-3.97-35.08-2.64-10.02-6.47-17.75-11.49-23.18-5.01-5.43-11-8.14-17.96-8.14h0Zm108.59,24.22l-40.51-5.43v2.09c6.13,4.18,11,9.82,14.62,16.92s5.43,15.1,5.43,24.01c0,12.81-3.69,24.36-11.07,34.66s-17.47,18.45-30.28,24.43c-12.81,5.99-27.56,8.98-44.27,8.98s-30.63-2.78-43.44-8.35-22.9-13.57-30.28-24.01c-7.38-10.44-11.07-22.9-11.07-37.38s3.9-27.56,11.69-38.42c7.8-10.86,18.17-19.28,31.11-25.27,12.95-5.99,27.08-8.98,42.39-8.98,9.19,0,17.54.9,25.06,2.71s16.01,4.52,25.48,8.14l55.13-5.43v31.32h.01Zm-128.22,269.8c-20.88,0-37.66-4.25-50.33-12.74-12.67-8.49-19-19.84-19-34.04,0-10.02,4.11-19.07,12.32-27.15,8.21-8.07,18.31-14.06,30.28-17.96l11.28-4.59,3.76,1.25c-2.78,2.51-5.5,5.36-8.14,8.56-2.65,3.2-4.8,6.61-6.47,10.23-1.67,3.62-2.51,7.66-2.51,12.11,0,8.35,2.3,15.8,6.89,22.34,4.59,6.54,11.14,11.76,19.63,15.66s18.45,5.85,29.86,5.85c14.2,0,25.69-2.44,34.46-7.31s15.17-10.58,19.21-17.12,6.06-12.32,6.06-17.33c0-4.18-.97-8.14-2.92-11.9s-5.01-6.61-9.19-8.56l-104.83-3.76v-7.52c-9.19-1.67-17.26-5.5-24.22-11.49s-10.44-13.99-10.44-24.01c0-10.58,3.34-19.42,10.02-26.52s15.87-12.88,27.56-17.33v-10.86l20.46,10.02c-5.57,3.34-9.95,6.61-13.16,9.81-3.2,3.2-4.8,7.17-4.8,11.9,0,3.34,1.46,6.54,4.39,9.61,2.92,3.06,8.42,4.73,16.5,5.01l81.02,2.09c15.04.56,26.8,5.08,35.29,13.57s12.74,18.86,12.74,31.12c0,11.14-3.2,22.07-9.61,32.79-6.4,10.72-15.31,20.46-26.73,29.23-11.42,8.77-24.71,15.8-39.89,21.09-15.17,5.29-31.67,7.94-49.49,7.94h0Z" style="fill: #fff;"/>
  <path d="m2459.92,310.73c-8.91,0-17.26-2.09-25.06-6.26-7.8-4.18-14.13-10.09-19-17.75s-7.31-16.64-7.31-26.94c0-11.14,3.06-20.81,9.19-29.03,6.13-8.21,14.06-15.1,23.81-20.67,9.75-5.57,20.19-10.02,31.32-13.36l55.96-17.96,5.85,9.61-40.51,15.45c-10.58,4.45-18.45,10.58-23.6,18.38-5.15,7.8-7.73,16.85-7.73,27.15,0,8.91,2.23,16.43,6.68,22.55,4.45,6.13,11,9.19,19.63,9.19,6.4,0,12.25-2.02,17.54-6.06s9.47-8.84,12.53-14.41v14.62c-6.96,9.19-14.97,17.4-24.01,24.64-9.05,7.24-20.81,10.86-35.29,10.86h0Zm89.38-1.25c-8.63,0-15.73-2.3-21.3-6.89-5.57-4.59-8.35-11.62-8.35-21.09v-4.18h-4.59l2.09-5.85v-130.31c-1.39-11.69-4.94-20.33-10.65-25.89-5.71-5.57-12.46-8.35-20.26-8.35-3.9,0-7.66.49-11.28,1.46s-6.68,2.3-9.19,3.97l-.84,44.27c-2.78,1.95-6.4,3.48-10.86,4.59-4.45,1.11-9.19,1.67-14.2,1.67-8.35,0-14.76-2.3-19.21-6.89-4.46-4.59-6.68-9.95-6.68-16.08,0-6.96,2.65-13.57,7.94-19.84,5.29-6.26,12.39-11.76,21.3-16.5s18.72-8.56,29.44-11.49c10.72-2.92,21.23-4.39,31.53-4.39,15.87,0,29.03,2.51,39.47,7.52,10.44,5.01,18.24,12.53,23.39,22.55s7.73,22.41,7.73,37.17v122.79c.56,2.51,1.53,4.46,2.92,5.85s4.04,2.09,7.94,2.09h10.02v10.86c-1.11.84-3.9,2.3-8.35,4.38-4.46,2.09-10.02,4.04-16.71,5.85-6.68,1.81-13.78,2.71-21.3,2.71v.02Z" style="fill: #fff;"/>
  <path d="m2663.9,117.78v-23.81h58.47v23.81h-58.47Zm2.51,192.54c-11.97,0-22.27-2.09-30.91-6.26-8.63-4.18-15.31-9.4-20.05-15.66-4.73-6.26-7.1-12.88-7.1-19.84l.84-151.19h-25.48v-15.03l29.24-8.77,46.78-42.18h7.94v212.16c1.11,5.01,4.32,9.12,9.61,12.32s11.97,4.8,20.05,4.8c4.18,0,8.77-.42,13.78-1.25,5.01-.84,9.05-1.95,12.11-3.34v15.87c-7.52,4.73-15.87,8.98-25.06,12.74-9.19,3.76-19.77,5.64-31.74,5.64h-.01Z" style="fill: #fff;"/>
  <path d="m2784.69,66.82c-8.63,0-16.01-2.92-22.14-8.77-6.13-5.85-9.19-13.09-9.19-21.72,0-8.07,3.06-15.17,9.19-21.3,6.13-6.13,13.5-9.19,22.14-9.19s16.36,3.06,22.34,9.19c5.99,6.13,8.98,13.23,8.98,21.3,0,8.63-2.99,15.87-8.98,21.72-5.99,5.85-13.43,8.77-22.34,8.77Zm-48.03,238.06v-11.28l17.96-6.68v-154.11l-20.46-15.87v-5.85l79.35-25.06v200.89l17.96,6.68v11.28h-94.81Z" style="fill: #fff;"/>
  <polygon points="2941.55 306.97 2913.15 306.97 2841.74 111.93 2827.54 105.67 2827.54 93.97 2929.44 93.97 2929.44 105.67 2905.22 111.93 2947.82 245.99 2993.34 113.18 2971.21 105.67 2971.21 93.97 3027.17 93.97 3027.17 105.67 3012.97 112.77 2941.55 306.97" style="fill: #fff;"/>
  <path d="m3112.79,310.73c-15.87,0-30-3.06-42.39-9.19s-22.9-14.48-31.53-25.06c-8.63-10.58-15.31-22.55-20.05-35.92-4.73-13.36-7.1-27.01-7.1-40.93,0-22,4.59-41.42,13.78-58.26s21.16-30,35.92-39.47,30.63-14.2,47.61-14.2c21.16,0,38.77,7.8,52.83,23.39s23.18,36.75,27.36,63.48h-134.9v-14.62h88.54c-2.23-13.92-5.15-25.06-8.77-33.41-3.62-8.35-7.94-14.41-12.95-18.17-5.01-3.76-10.86-5.64-17.54-5.64-11.69,0-21.02,6.75-27.98,20.26-6.96,13.5-10.44,30.56-10.44,51.16s3.27,37.66,9.81,52,15.38,25.34,26.52,32.99c11.14,7.66,23.81,11.49,38.01,11.49,8.35,0,16.57-1.04,24.64-3.13,8.07-2.09,15.59-5.08,22.55-8.98v18.38c-6.96,9.19-16.91,17.12-29.86,23.81-12.95,6.68-27.63,10.02-44.06,10.02h0Z" style="fill: #fff;"/>
  <path d="m152.68,398.53v235.97c0,22.83-3.27,42.18-9.81,58.05s-17.68,28.54-33.41,38.01c-15.73,9.47-37.38,16.84-64.94,22.13l-1.67-10.02c12.81-7.52,22.48-15.24,29.03-23.18,6.54-7.94,11-16.98,13.36-27.15,2.37-10.16,3.55-22.2,3.55-36.13v-257.69l-23.39-6.68v-12.53h109.42v12.53l-22.14,6.68h0Z" style="fill: #fff;"/>
  <path d="m274.97,670.84c-19.21,0-36.47-4.59-51.79-13.78-15.31-9.19-27.5-22-36.54-38.42-9.05-16.43-13.57-35.36-13.57-56.8,0-22.83,4.66-42.81,13.99-59.93s21.72-30.42,37.17-39.89,32.23-14.2,50.33-14.2c19.77,0,37.24,4.73,52.41,14.2,15.17,9.47,27.22,22.34,36.13,38.63,8.91,16.29,13.36,35.01,13.36,56.17,0,22.83-4.66,42.81-13.99,59.93s-21.65,30.42-36.96,39.89c-15.31,9.47-32.16,14.2-50.54,14.2h0Zm-4.59-209.66c-7.52,0-13.85,3.41-19,10.23s-9.12,16.43-11.9,28.82-4.18,26.94-4.18,43.64c0,21.44,1.74,40.79,5.22,58.05s8.49,30.84,15.04,40.72c6.54,9.88,14.27,14.83,23.18,14.83,7.52,0,13.85-3.41,19-10.23s9.12-16.43,11.9-28.82,4.18-27.08,4.18-44.06c0-21.72-1.74-41.07-5.22-58.05-3.48-16.98-8.49-30.42-15.04-40.3-6.54-9.88-14.27-14.83-23.18-14.83h0Z" style="fill: #fff;"/>
  <path d="m521.05,671.67v-40.51h-2.92v-147.85l-21.3-10.86v-7.94l80.19-16.29v190.86l19.21,8.35v9.19l-75.18,15.03v.02Zm-66.41.42c-12.53,0-23.11-2.44-31.74-7.31s-15.1-11.48-19.42-19.84c-4.32-8.35-6.47-17.96-6.47-28.82v-132.39l-19.21-11.28v-7.94l78.1-15.87v155.36c0,11.14,2.51,19.42,7.52,24.85s11.69,8.14,20.05,8.14,15.73-2.16,22.14-6.47c6.4-4.32,11.69-9.54,15.87-15.66l2.51,7.52c-2.51,5.29-5.85,10.79-10.02,16.5-4.18,5.71-9.26,11.07-15.24,16.08-5.99,5.01-12.67,9.12-20.05,12.32s-15.38,4.8-24.01,4.8h-.03Z" style="fill: #fff;"/>
  <path d="m605.75,664.99v-11.28l17.96-6.68v-154.11l-20.46-15.87v-5.85l75.18-24.22h1.67v52.62h2.51c3.62-10.86,8.07-20.05,13.36-27.56,5.29-7.52,11.21-13.3,17.75-17.33,6.54-4.04,13.16-6.06,19.84-6.06,7.24,0,13.57,2.51,19,7.52,5.43,5.01,8.14,11.97,8.14,20.88s-2.71,16.36-8.14,22.34c-5.43,5.99-12.18,10.09-20.26,12.32l-25.06-19.21c-5.01,2.51-9.88,6.33-14.62,11.49-4.73,5.15-8.07,11.35-10.02,18.59v124.46l23.81,6.68v11.28h-100.66Z" style="fill: #fff;"/>
  <path d="m774.22,664.99v-11.28l17.96-6.68v-154.11l-20.46-15.87v-5.85l74.76-24.22h1.67v41.35h2.92v158.71l17.96,6.68v11.28h-94.81Zm121.54,0v-11.28l18.79-6.68v-127.38c-.28-6.96-1.18-13.23-2.71-18.79-1.53-5.57-4.18-10.02-7.94-13.36-3.76-3.34-8.98-5.01-15.66-5.01-8.63,0-16.57,2.23-23.81,6.68-7.24,4.46-13.09,8.77-17.54,12.95l-.84-5.85c1.67-3.62,4.52-8.07,8.56-13.36,4.04-5.29,9.12-10.65,15.24-16.08,6.13-5.43,13.3-9.95,21.51-13.57s17.47-5.43,27.77-5.43c15.31,0,28.12,5.22,38.42,15.66s15.45,25.55,15.45,45.32v138.24l18.38,6.68v11.28h-95.64l.02-.02Z" style="fill: #fff;"/>
  <path d="m1046.7,670.84c-8.91,0-17.26-2.09-25.06-6.26-7.8-4.18-14.13-10.09-19-17.75s-7.31-16.64-7.31-26.94c0-11.14,3.06-20.81,9.19-29.03,6.13-8.21,14.06-15.1,23.81-20.67s20.19-10.02,31.32-13.36l55.96-17.96,5.85,9.61-40.51,15.45c-10.58,4.45-18.45,10.58-23.6,18.38s-7.73,16.85-7.73,27.15c0,8.91,2.23,16.43,6.68,22.55,4.45,6.13,11,9.19,19.63,9.19,6.4,0,12.25-2.02,17.54-6.06s9.47-8.84,12.53-14.41v14.62c-6.96,9.19-14.97,17.4-24.01,24.64-9.05,7.24-20.81,10.86-35.29,10.86h0Zm89.38-1.25c-8.63,0-15.73-2.3-21.3-6.89-5.57-4.59-8.35-11.62-8.35-21.09v-4.18h-4.59l2.09-5.85v-130.31c-1.39-11.69-4.94-20.33-10.65-25.89-5.71-5.57-12.46-8.35-20.26-8.35-3.9,0-7.66.49-11.28,1.46s-6.68,2.3-9.19,3.97l-.84,44.27c-2.78,1.95-6.4,3.48-10.86,4.59-4.45,1.11-9.19,1.67-14.2,1.67-8.35,0-14.76-2.3-19.21-6.89-4.45-4.59-6.68-9.95-6.68-16.08,0-6.96,2.65-13.57,7.94-19.84,5.29-6.26,12.39-11.76,21.3-16.5,8.91-4.73,18.72-8.56,29.44-11.49,10.72-2.92,21.23-4.39,31.53-4.39,15.87,0,29.03,2.51,39.47,7.52,10.44,5.01,18.24,12.53,23.39,22.55s7.73,22.41,7.73,37.17v122.79c.56,2.51,1.53,4.46,2.92,5.85,1.39,1.39,4.04,2.09,7.94,2.09h10.02v10.86c-1.11.84-3.9,2.3-8.35,4.38-4.46,2.09-10.02,4.04-16.71,5.85s-13.78,2.71-21.3,2.71v.02Z" style="fill: #fff;"/>
  <polygon points="1192.71 664.99 1192.71 653.72 1210.67 647.03 1210.67 406.05 1191.04 391.43 1191.04 385.17 1269.55 360.11 1269.55 647.03 1287.51 653.72 1287.51 664.99 1192.71 664.99" style="fill: #fff;"/>
  <path d="m1343.81,426.93c-8.63,0-16.01-2.92-22.14-8.77s-9.19-13.09-9.19-21.72c0-8.07,3.06-15.17,9.19-21.3,6.13-6.13,13.5-9.19,22.14-9.19s16.36,3.06,22.34,9.19c5.99,6.13,8.98,13.23,8.98,21.3,0,8.63-2.99,15.87-8.98,21.72s-13.43,8.77-22.34,8.77Zm-48.03,238.06v-11.28l17.96-6.68v-154.11l-20.46-15.87v-5.85l79.35-25.06v200.89l17.96,6.68v11.28h-94.81Z" style="fill: #fff;"/>
  <path d="m1461.67,671.67c-11.14,0-21.65-1.04-31.53-3.13-9.88-2.09-19.14-4.66-27.77-7.73l-1.67-59.72h10.02l21.72,48.45c3.34,2.51,7.52,4.52,12.53,6.06,5.01,1.53,10.44,2.3,16.29,2.3,11.42,0,20.19-3.34,26.31-10.02,6.13-6.68,9.19-14.76,9.19-24.22,0-8.63-2.09-15.52-6.26-20.67-4.18-5.15-9.33-9.12-15.45-11.9l-39.26-18.38c-10.02-4.73-18.31-12.18-24.85-22.34-6.54-10.16-9.81-21.79-9.81-34.87,0-13.92,3.48-25.96,10.44-36.13,6.96-10.16,16.36-18.03,28.19-23.6,11.83-5.57,24.99-8.35,39.47-8.35,9.19,0,18.52,1.11,27.98,3.34,9.47,2.23,18.65,5.15,27.56,8.77v50.95h-10.02l-20.46-42.6c-3.9-2.51-7.87-4.32-11.9-5.43-4.04-1.11-8.01-1.67-11.9-1.67-8.63,0-15.73,3.06-21.3,9.19s-8.35,13.64-8.35,22.55,2.09,15.31,6.26,20.05c4.18,4.73,9.05,8.49,14.62,11.28l39.26,18.38c10.3,4.73,18.79,11.83,25.48,21.3,6.68,9.47,10.02,21.16,10.02,35.08s-3.83,27.15-11.49,38.01-17.82,19.42-30.49,25.69c-12.67,6.26-26.94,9.4-42.81,9.4l-.02-.04Z" style="fill: #fff;"/>
  <path d="m1783.18,664.99v-11.28l17.96-6.68v-128.64c0-6.96-.7-13.09-2.09-18.38-1.39-5.29-3.83-9.54-7.31-12.74-3.48-3.2-8.14-4.8-13.99-4.8-5.29,0-10.3,1.11-15.04,3.34-4.73,2.23-9.05,4.8-12.95,7.73-3.9,2.92-7.24,5.78-10.02,8.56l-1.25-5.85c1.95-3.62,4.8-8.07,8.56-13.36,3.76-5.29,8.56-10.65,14.41-16.08,5.85-5.43,12.74-9.95,20.67-13.57,7.94-3.62,16.78-5.43,26.52-5.43,14.76,0,27.01,5.08,36.75,15.24,9.75,10.16,14.62,25.41,14.62,45.73v138.24l18.38,6.68v11.28h-95.22,0Zm-232.63,0v-11.28l17.96-6.68v-154.11l-20.46-15.87v-5.85l74.76-24.22h1.67v41.35h2.92v158.71l17.54,6.68v11.28h-94.39Zm116.52,0v-11.28l17.96-6.68v-128.64c-.28-6.96-1.04-13.09-2.3-18.38-1.25-5.29-3.62-9.54-7.1-12.74-3.48-3.2-8.28-4.8-14.41-4.8-7.8,0-15.04,2.3-21.72,6.89-6.68,4.59-12.11,8.84-16.29,12.74l-.84-5.85c1.67-3.34,4.39-7.73,8.14-13.16,3.76-5.43,8.56-10.86,14.41-16.29,5.85-5.43,12.74-9.95,20.67-13.57,7.94-3.62,16.78-5.43,26.52-5.43,12.53,0,23.25,3.69,32.16,11.07s14.48,17.89,16.71,31.53h2.51v156.62l17.54,6.68v11.28h-93.97.01Z" style="fill: #fff;"/>
  <path d="m1964.66,401.87v242.65l29.24,7.94v12.53h-71v-12.53l22.55-7.94v-240.56l19.21-2.09h0Zm147.85,264.37l-154.11-234.3-7.94-15.45-27.56-24.64v-12.53h73.09l134.48,205.9-12.95,42.6v-227.62l-30.49-8.35v-12.53h70.16v12.53l-20.88,8.35v266.04h-23.81.01Z" style="fill: #fff;"/>
  <path d="m2254.34,670.84c-15.87,0-30-3.06-42.39-9.19s-22.9-14.48-31.53-25.06c-8.63-10.58-15.31-22.55-20.05-35.92-4.73-13.36-7.1-27.01-7.1-40.93,0-22,4.59-41.42,13.78-58.26,9.19-16.84,21.16-30,35.92-39.47s30.63-14.2,47.61-14.2c21.16,0,38.77,7.8,52.83,23.39s23.18,36.75,27.36,63.48h-134.9v-14.62h88.54c-2.23-13.92-5.15-25.06-8.77-33.41s-7.94-14.41-12.95-18.17-10.86-5.64-17.54-5.64c-11.69,0-21.02,6.75-27.98,20.26-6.96,13.5-10.44,30.56-10.44,51.16s3.27,37.66,9.81,52,15.38,25.34,26.52,32.99,23.81,11.49,38.01,11.49c8.35,0,16.57-1.04,24.64-3.13,8.07-2.09,15.59-5.08,22.55-8.98v18.38c-6.96,9.19-16.91,17.12-29.86,23.81-12.95,6.68-27.63,10.02-44.06,10.02h0Z" style="fill: #fff;"/>
  <path d="m2409.12,477.89v-23.81h58.47v23.81h-58.47Zm2.51,192.54c-11.97,0-22.27-2.09-30.91-6.26-8.63-4.18-15.31-9.4-20.05-15.66-4.73-6.26-7.1-12.88-7.1-19.84l.84-151.19h-25.48v-15.03l29.24-8.77,46.78-42.18h7.94v212.16c1.11,5.01,4.32,9.12,9.61,12.32s11.97,4.8,20.05,4.8c4.18,0,8.77-.42,13.78-1.25,5.01-.84,9.05-1.95,12.11-3.34v15.87c-7.52,4.73-15.87,8.98-25.06,12.74s-19.77,5.64-31.74,5.64h-.01Z" style="fill: #fff;"/>
  <polygon points="2661.46 453.24 2710.74 610.28 2703.64 610.28 2739.56 473.71 2711.58 465.77 2711.58 454.08 2775.48 454.08 2775.48 465.77 2759.19 472.87 2703.22 667.08 2674.82 667.08 2628.88 521.32 2632.22 521.32 2587.12 667.08 2557.47 667.08 2497.32 472.04 2480.62 465.77 2480.62 454.08 2585.45 454.08 2585.45 465.77 2558.72 472.46 2597.14 608.61 2590.46 608.61 2637.65 453.24 2661.46 453.24" style="fill: #fff;"/>
  <path d="m2860.84,670.84c-19.21,0-36.47-4.59-51.79-13.78-15.31-9.19-27.5-22-36.54-38.42-9.05-16.43-13.57-35.36-13.57-56.8,0-22.83,4.66-42.81,13.99-59.93s21.72-30.42,37.17-39.89,32.23-14.2,50.33-14.2c19.77,0,37.24,4.73,52.41,14.2s27.22,22.34,36.13,38.63c8.91,16.29,13.36,35.01,13.36,56.17,0,22.83-4.66,42.81-13.99,59.93s-21.65,30.42-36.96,39.89c-15.31,9.47-32.16,14.2-50.54,14.2h0Zm-4.59-209.66c-7.52,0-13.85,3.41-19,10.23s-9.12,16.43-11.9,28.82c-2.78,12.39-4.18,26.94-4.18,43.64,0,21.44,1.74,40.79,5.22,58.05s8.49,30.84,15.04,40.72c6.54,9.88,14.27,14.83,23.18,14.83,7.52,0,13.85-3.41,19-10.23s9.12-16.43,11.9-28.82c2.78-12.39,4.18-27.08,4.18-44.06,0-21.72-1.74-41.07-5.22-58.05-3.48-16.98-8.49-30.42-15.04-40.3-6.54-9.88-14.27-14.83-23.18-14.83h0Z" style="fill: #fff;"/>
  <path d="m2965.09,664.99v-11.28l17.96-6.68v-154.11l-20.46-15.87v-5.85l75.18-24.22h1.67v52.62h2.51c3.62-10.86,8.07-20.05,13.36-27.56,5.29-7.52,11.21-13.3,17.75-17.33,6.54-4.04,13.16-6.06,19.84-6.06,7.24,0,13.57,2.51,19,7.52,5.43,5.01,8.14,11.97,8.14,20.88s-2.71,16.36-8.14,22.34c-5.43,5.99-12.18,10.09-20.26,12.32l-25.06-19.21c-5.01,2.51-9.88,6.33-14.62,11.49-4.73,5.15-8.07,11.35-10.02,18.59v124.46l23.81,6.68v11.28h-100.66Z" style="fill: #fff;"/>
  <path d="m3134.99,647.03v-240.98l-19.63-14.62v-6.26l78.52-25.06v286.92l17.96,6.68v11.28h-94.81v-11.28l17.96-6.68Zm93.97-105.25l-32.58,15.45,70.16-81.86-27.56-9.61v-11.69h77.68v11.69l-27.15,9.19-60.56,66.82h.01Zm93.97,123.21h-60.98l-65.57-107.75,44.69-32.99,81.86,129.47v11.28h0Z" style="fill: #fff;"/>
</svg>