<svg width="231" height="30" viewBox="0 0 231 30" fill="none" xmlns="http://www.w3.org/2000/svg">
<path d="M58.8004 4.59936C57.5416 2.60163 58.9773 0 61.3386 0H126.485C129 0 131.322 1.34907 132.567 3.53403L137.307 11.8513C138.356 13.6928 138.356 15.9514 137.307 17.7929L132.567 26.1102C131.322 28.2951 129 29.6442 126.485 29.6442H61.3386C58.9773 29.6442 57.5416 27.0426 58.8004 25.0448L64.2343 16.4215C64.8502 15.4441 64.8502 14.2001 64.2343 13.2227L58.8004 4.59936Z" fill="#222222"/>
<path d="M0 2.61562H7.4416C9.06522 2.61562 10.4408 2.89507 11.5683 3.45397C12.6958 4.01287 13.5527 4.84005 14.139 5.9355C14.7366 7.01977 15.0354 8.36672 15.0354 9.97637C15.0354 11.1948 14.8494 12.2679 14.4773 13.1956C14.1165 14.1234 13.5922 14.9059 12.9044 15.543C12.2166 16.169 11.3879 16.6553 10.4182 17.0018L9.21743 17.6557H2.9259L2.90899 14.2352H7.34012C8.14065 14.2352 8.80589 14.0619 9.33582 13.7154C9.86575 13.3689 10.2604 12.8882 10.5197 12.2735C10.7903 11.6587 10.9256 10.96 10.9256 10.1776C10.9256 9.33922 10.8072 8.61264 10.5704 7.99785C10.3337 7.37188 9.96159 6.89122 9.45421 6.55588C8.94683 6.20936 8.27596 6.0361 7.4416 6.0361H4.10979V27.0285H0V2.61562ZM11.4668 27.0285L6.782 16.0628L11.0609 16.0461L15.8641 26.8105V27.0285H11.4668Z" fill="#222222"/>
<path d="M26.925 17.9743H21.7328V14.5705H26.925C27.7707 14.5705 28.4528 14.3917 28.9715 14.034C29.5014 13.6763 29.8848 13.1845 30.1215 12.5585C30.3696 11.9325 30.4936 11.2227 30.4936 10.4291C30.4936 9.66897 30.3696 8.95357 30.1215 8.28289C29.8848 7.61221 29.5071 7.07007 28.9884 6.65648C28.4697 6.24289 27.782 6.0361 26.925 6.0361H22.8829V27.0285H18.79V2.61562H26.925C28.5487 2.61562 29.9355 2.95096 31.0856 3.62164C32.2356 4.29232 33.1151 5.21451 33.724 6.38821C34.3328 7.55073 34.6372 8.8865 34.6372 10.3955C34.6372 11.9716 34.3328 13.3242 33.724 14.4532C33.1151 15.5822 32.2356 16.454 31.0856 17.0688C29.9355 17.6725 28.5487 17.9743 26.925 17.9743Z" fill="#222222"/>
<path d="M50.2815 19.0641H54.3744C54.2955 20.8303 53.9347 22.3337 53.292 23.5745C52.6493 24.8041 51.7247 25.743 50.5183 26.3913C49.3231 27.0397 47.863 27.3638 46.1379 27.3638C44.83 27.3638 43.6574 27.1291 42.62 26.6596C41.594 26.1901 40.7202 25.5139 39.9986 24.6308C39.277 23.7366 38.7245 22.6467 38.3411 21.3612C37.9691 20.0757 37.783 18.617 37.783 16.985V12.6591C37.783 11.0271 37.9747 9.56837 38.358 8.28289C38.7527 6.99741 39.3164 5.90755 40.0493 5.01331C40.7822 4.11906 41.6729 3.44279 42.7215 2.98449C43.7814 2.51501 44.9766 2.28027 46.307 2.28027C48.0096 2.28027 49.4415 2.60444 50.6029 3.25276C51.7642 3.90109 52.6606 4.85123 53.292 6.10317C53.9234 7.35511 54.2898 8.88092 54.3913 10.6806H50.2984C50.242 9.46217 50.0729 8.48968 49.791 7.76311C49.5204 7.02536 49.1033 6.4944 48.5395 6.17024C47.987 5.84607 47.2429 5.68399 46.307 5.68399C45.529 5.68399 44.8582 5.82931 44.2944 6.11994C43.7419 6.41057 43.2853 6.84651 42.9245 7.42777C42.5749 7.99785 42.31 8.71883 42.1296 9.59072C41.9605 10.4514 41.8759 11.463 41.8759 12.6256V16.985C41.8759 18.1028 41.9492 19.0921 42.0958 19.9528C42.2423 20.8135 42.4791 21.5457 42.8061 22.1493C43.1331 22.7417 43.5672 23.1944 44.1084 23.5074C44.6496 23.8092 45.3261 23.9601 46.1379 23.9601C47.1076 23.9601 47.8799 23.8092 48.4549 23.5074C49.0412 23.2056 49.4753 22.697 49.7572 21.9816C50.0391 21.2662 50.2139 20.2937 50.2815 19.0641Z" fill="#222222"/>
<path d="M73.2771 22.3663V7.00605H82.8727V9.63923H76.1558V13.3476H82.3493V15.9808H76.1558V22.3663H73.2771Z" fill="#E3B4FA"/>
<path d="M122.115 22.3661V9.56338H117.64V6.91454H129.486V9.56338H125.011V22.3661H122.115Z" fill="#E3B4FA"/>
<path d="M91.1359 22.3663C90.0894 22.3663 89.1516 22.1875 88.3223 21.8299C87.5128 21.4723 86.8613 20.9459 86.3677 20.2505C85.8938 19.5552 85.6569 18.7109 85.6569 17.7176C85.6569 16.7044 85.8938 15.87 86.3677 15.2144C86.8613 14.539 87.5227 14.0324 88.3519 13.6947C89.2009 13.357 90.1585 13.1881 91.2247 13.1881H95.6671V12.2345C95.6671 11.3803 95.4105 10.6949 94.8971 10.1784C94.3838 9.66183 93.594 9.40357 92.5278 9.40357C91.4814 9.40357 90.6817 9.65189 90.1289 10.1486C89.5761 10.6452 89.2108 11.2909 89.0331 12.0855L86.19 11.1617C86.4269 10.3671 86.802 9.6519 87.3154 9.01618C87.8485 8.36059 88.5494 7.83413 89.4181 7.43681C90.2869 7.03948 91.3333 6.84082 92.5574 6.84082C94.4529 6.84082 95.9436 7.32754 97.0295 8.30099C98.1154 9.27444 98.6584 10.6551 98.6584 12.4431V18.4924C98.6584 19.0884 98.9348 19.3864 99.4876 19.3864H100.732V21.9491H98.4511C97.76 21.9491 97.1973 21.7703 96.7629 21.4127C96.3286 21.0551 96.1114 20.5684 96.1114 19.9526V19.8632H95.6671C95.5092 20.1611 95.2723 20.5088 94.9563 20.9061C94.6404 21.3035 94.1765 21.6511 93.5644 21.9491C92.9523 22.2272 92.1428 22.3663 91.1359 22.3663ZM91.5801 19.8334C92.8042 19.8334 93.7914 19.4857 94.5417 18.7904C95.292 18.0752 95.6671 17.1017 95.6671 15.87V15.572H91.4024C90.5929 15.572 89.9413 15.7508 89.4477 16.1084C88.9541 16.4462 88.7073 16.9527 88.7073 17.6282C88.7073 18.3036 88.964 18.84 89.4774 19.2374C89.9907 19.6347 90.6916 19.8334 91.5801 19.8334Z" fill="#E3B4FA"/>
<path d="M109.564 22.3663C107.708 22.3663 106.168 21.9491 104.944 21.1147C103.72 20.2803 102.97 19.0188 102.693 17.3302L105.536 16.6448C105.694 17.4593 105.961 18.105 106.336 18.5818C106.711 19.0586 107.175 19.3963 107.728 19.595C108.301 19.7936 108.913 19.893 109.564 19.893C110.532 19.893 111.272 19.7042 111.786 19.3268C112.319 18.9493 112.585 18.4626 112.585 17.8666C112.585 17.2706 112.338 16.8335 111.845 16.5554C111.351 16.2773 110.621 16.0488 109.653 15.87L108.646 15.6912C107.659 15.5124 106.761 15.2542 105.951 14.9165C105.142 14.5787 104.5 14.1119 104.026 13.5159C103.552 12.9199 103.315 12.155 103.315 11.2213C103.315 9.83069 103.829 8.75791 104.855 8.003C105.882 7.22821 107.244 6.84082 108.942 6.84082C110.581 6.84082 111.924 7.21828 112.97 7.9732C114.036 8.70825 114.727 9.71149 115.043 10.9829L112.2 11.7875C112.022 10.8935 111.647 10.2677 111.075 9.91016C110.502 9.5327 109.791 9.34397 108.942 9.34397C108.113 9.34397 107.462 9.5029 106.988 9.82076C106.514 10.1188 106.277 10.5459 106.277 11.1021C106.277 11.6981 106.504 12.1352 106.958 12.4133C107.432 12.6914 108.064 12.9 108.854 13.0391L109.89 13.2179C110.937 13.3967 111.894 13.645 112.763 13.9629C113.632 14.2807 114.313 14.7377 114.806 15.3336C115.32 15.9296 115.576 16.7243 115.576 17.7176C115.576 19.1877 115.033 20.33 113.947 21.1445C112.862 21.959 111.401 22.3663 109.564 22.3663Z" fill="#E3B4FA"/>
<path d="M70.2554 22.3663V7.00605H79.851V9.63923H73.1341V13.3476H79.3276V15.9808H73.1341V22.3663H70.2554Z" fill="#FFCBAE"/>
<path d="M119.093 22.3661V9.56338H114.618V6.91454H126.464V9.56338H121.989V22.3661H119.093Z" fill="#FFCBAE"/>
<path d="M88.1141 22.3663C87.0677 22.3663 86.1298 22.1875 85.3006 21.8299C84.4911 21.4723 83.8395 20.9459 83.3459 20.2505C82.8721 19.5552 82.6351 18.7109 82.6351 17.7176C82.6351 16.7044 82.8721 15.87 83.3459 15.2144C83.8395 14.539 84.501 14.0324 85.3302 13.6947C86.1792 13.357 87.1368 13.1881 88.203 13.1881H92.6454V12.2345C92.6454 11.3803 92.3887 10.6949 91.8754 10.1784C91.362 9.66183 90.5723 9.40357 89.5061 9.40357C88.4597 9.40357 87.66 9.65189 87.1072 10.1486C86.5543 10.6452 86.1891 11.2909 86.0114 12.0855L83.1682 11.1617C83.4052 10.3671 83.7803 9.6519 84.2936 9.01618C84.8267 8.36059 85.5276 7.83413 86.3964 7.43681C87.2651 7.03948 88.3116 6.84082 89.5357 6.84082C91.4311 6.84082 92.9218 7.32754 94.0078 8.30099C95.0937 9.27444 95.6366 10.6551 95.6366 12.4431V18.4924C95.6366 19.0884 95.9131 19.3864 96.4659 19.3864H97.7098V21.9491H95.4293C94.7383 21.9491 94.1756 21.7703 93.7412 21.4127C93.3068 21.0551 93.0897 20.5684 93.0897 19.9526V19.8632H92.6454C92.4875 20.1611 92.2505 20.5088 91.9346 20.9061C91.6187 21.3035 91.1547 21.6511 90.5427 21.9491C89.9306 22.2272 89.1211 22.3663 88.1141 22.3663ZM88.5584 19.8334C89.7825 19.8334 90.7697 19.4857 91.52 18.7904C92.2703 18.0752 92.6454 17.1017 92.6454 15.87V15.572H88.3807C87.5712 15.572 86.9196 15.7508 86.426 16.1084C85.9324 16.4462 85.6856 16.9527 85.6856 17.6282C85.6856 18.3036 85.9423 18.84 86.4556 19.2374C86.969 19.6347 87.6699 19.8334 88.5584 19.8334Z" fill="#FFCBAE"/>
<path d="M106.543 22.3663C104.687 22.3663 103.147 21.9491 101.922 21.1147C100.698 20.2803 99.948 19.0188 99.6716 17.3302L102.515 16.6448C102.673 17.4593 102.939 18.105 103.314 18.5818C103.69 19.0586 104.154 19.3963 104.706 19.595C105.279 19.7936 105.891 19.893 106.543 19.893C107.51 19.893 108.25 19.7042 108.764 19.3268C109.297 18.9493 109.563 18.4626 109.563 17.8666C109.563 17.2706 109.317 16.8335 108.823 16.5554C108.329 16.2773 107.599 16.0488 106.631 15.87L105.624 15.6912C104.637 15.5124 103.739 15.2542 102.929 14.9165C102.12 14.5787 101.478 14.1119 101.004 13.5159C100.53 12.9199 100.294 12.155 100.294 11.2213C100.294 9.83069 100.807 8.75791 101.834 8.003C102.86 7.22821 104.223 6.84082 105.921 6.84082C107.559 6.84082 108.902 7.21828 109.948 7.9732C111.015 8.70825 111.706 9.71149 112.022 10.9829L109.178 11.7875C109.001 10.8935 108.626 10.2677 108.053 9.91016C107.48 9.5327 106.77 9.34397 105.921 9.34397C105.091 9.34397 104.44 9.5029 103.966 9.82076C103.492 10.1188 103.255 10.5459 103.255 11.1021C103.255 11.6981 103.482 12.1352 103.936 12.4133C104.41 12.6914 105.042 12.9 105.832 13.0391L106.868 13.2179C107.915 13.3967 108.872 13.645 109.741 13.9629C110.61 14.2807 111.291 14.7377 111.785 15.3336C112.298 15.9296 112.555 16.7243 112.555 17.7176C112.555 19.1877 112.012 20.33 110.926 21.1445C109.84 21.959 108.379 22.3663 106.543 22.3663Z" fill="#FFCBAE"/>
<path d="M71.7662 22.3663V7.00605H81.3619V9.63923H74.6449V13.3476H80.8385V15.9808H74.6449V22.3663H71.7662Z" fill="white"/>
<path d="M120.604 22.3661V9.56338H116.129V6.91454H127.975V9.56338H123.5V22.3661H120.604Z" fill="white"/>
<path d="M89.625 22.3663C88.5786 22.3663 87.6407 22.1875 86.8115 21.8299C86.0019 21.4723 85.3504 20.9459 84.8568 20.2505C84.3829 19.5552 84.146 18.7109 84.146 17.7176C84.146 16.7044 84.3829 15.87 84.8568 15.2144C85.3504 14.539 86.0118 14.0324 86.8411 13.6947C87.6901 13.357 88.6477 13.1881 89.7138 13.1881H94.1563V12.2345C94.1563 11.3803 93.8996 10.6949 93.3862 10.1784C92.8729 9.66183 92.0831 9.40357 91.017 9.40357C89.9705 9.40357 89.1709 9.65189 88.618 10.1486C88.0652 10.6452 87.6999 11.2909 87.5222 12.0855L84.6791 11.1617C84.916 10.3671 85.2912 9.6519 85.8045 9.01618C86.3376 8.36059 87.0385 7.83413 87.9073 7.43681C88.776 7.03948 89.8224 6.84082 91.0466 6.84082C92.942 6.84082 94.4327 7.32754 95.5186 8.30099C96.6045 9.27444 97.1475 10.6551 97.1475 12.4431V18.4924C97.1475 19.0884 97.4239 19.3864 97.9768 19.3864H99.2206V21.9491H96.9402C96.2491 21.9491 95.6864 21.7703 95.2521 21.4127C94.8177 21.0551 94.6005 20.5684 94.6005 19.9526V19.8632H94.1563C93.9983 20.1611 93.7614 20.5088 93.4455 20.9061C93.1296 21.3035 92.6656 21.6511 92.0535 21.9491C91.4415 22.2272 90.6319 22.3663 89.625 22.3663ZM90.0692 19.8334C91.2934 19.8334 92.2806 19.4857 93.0309 18.7904C93.7811 18.0752 94.1563 17.1017 94.1563 15.87V15.572H89.8915C89.082 15.572 88.4305 15.7508 87.9369 16.1084C87.4433 16.4462 87.1965 16.9527 87.1965 17.6282C87.1965 18.3036 87.4531 18.84 87.9665 19.2374C88.4798 19.6347 89.1808 19.8334 90.0692 19.8334Z" fill="white"/>
<path d="M108.053 22.3663C106.197 22.3663 104.657 21.9491 103.433 21.1147C102.209 20.2803 101.459 19.0188 101.182 17.3302L104.026 16.6448C104.184 17.4593 104.45 18.105 104.825 18.5818C105.2 19.0586 105.664 19.3963 106.217 19.595C106.79 19.7936 107.402 19.893 108.053 19.893C109.021 19.893 109.761 19.7042 110.275 19.3268C110.808 18.9493 111.074 18.4626 111.074 17.8666C111.074 17.2706 110.827 16.8335 110.334 16.5554C109.84 16.2773 109.11 16.0488 108.142 15.87L107.135 15.6912C106.148 15.5124 105.25 15.2542 104.44 14.9165C103.631 14.5787 102.989 14.1119 102.515 13.5159C102.041 12.9199 101.804 12.155 101.804 11.2213C101.804 9.83069 102.318 8.75791 103.344 8.003C104.371 7.22821 105.733 6.84082 107.431 6.84082C109.07 6.84082 110.413 7.21828 111.459 7.9732C112.525 8.70825 113.217 9.71149 113.532 10.9829L110.689 11.7875C110.512 10.8935 110.136 10.2677 109.564 9.91016C108.991 9.5327 108.28 9.34397 107.431 9.34397C106.602 9.34397 105.951 9.5029 105.477 9.82076C105.003 10.1188 104.766 10.5459 104.766 11.1021C104.766 11.6981 104.993 12.1352 105.447 12.4133C105.921 12.6914 106.553 12.9 107.343 13.0391L108.379 13.2179C109.426 13.3967 110.383 13.645 111.252 13.9629C112.121 14.2807 112.802 14.7377 113.296 15.3336C113.809 15.9296 114.066 16.7243 114.066 17.7176C114.066 19.1877 113.523 20.33 112.437 21.1445C111.351 21.959 109.89 22.3663 108.053 22.3663Z" fill="white"/>
<path d="M149.36 18.4933C148.794 18.4933 148.358 18.3902 148.051 18.1841C147.753 17.9779 147.529 17.7479 147.379 17.4941H147.191V18.3268H146V10H147.214V13.2593H147.403C147.497 13.1007 147.623 12.9501 147.78 12.8073C147.937 12.6566 148.146 12.5337 148.405 12.4386C148.665 12.3434 148.983 12.2958 149.36 12.2958C149.847 12.2958 150.296 12.4148 150.704 12.6527C151.113 12.8906 151.439 13.2356 151.683 13.6876C151.926 14.1396 152.048 14.6789 152.048 15.3054V15.4838C152.048 16.1182 151.923 16.6614 151.671 17.1135C151.427 17.5576 151.101 17.8986 150.692 18.1365C150.292 18.3744 149.847 18.4933 149.36 18.4933ZM149.006 17.4227C149.533 17.4227 149.965 17.2522 150.303 16.9112C150.649 16.5702 150.822 16.0825 150.822 15.4481V15.341C150.822 14.7146 150.653 14.2308 150.315 13.8898C149.977 13.5488 149.541 13.3783 149.006 13.3783C148.488 13.3783 148.055 13.5488 147.71 13.8898C147.372 14.2308 147.203 14.7146 147.203 15.341V15.4481C147.203 16.0825 147.372 16.5702 147.71 16.9112C148.055 17.2522 148.488 17.4227 149.006 17.4227Z" fill="#222222"/>
<path d="M154.225 20.7059V19.6353H157.467C157.687 19.6353 157.797 19.5163 157.797 19.2784V17.4703H157.609C157.538 17.6289 157.428 17.7836 157.279 17.9342C157.137 18.077 156.945 18.1959 156.701 18.2911C156.457 18.3863 156.151 18.4339 155.781 18.4339C155.341 18.4339 154.948 18.3347 154.602 18.1365C154.256 17.9382 153.985 17.6567 153.789 17.2919C153.592 16.9271 153.494 16.4949 153.494 15.9953V12.4624H154.708V15.9001C154.708 16.4077 154.834 16.7844 155.086 17.0302C155.337 17.2681 155.687 17.3871 156.135 17.3871C156.63 17.3871 157.027 17.2205 157.326 16.8875C157.632 16.5544 157.786 16.0706 157.786 15.4362V12.4624H159V19.5282C159 19.8851 158.894 20.1706 158.682 20.3847C158.477 20.5988 158.194 20.7059 157.833 20.7059H154.225Z" fill="#222222"/>
<path d="M168 6.15381H173.355C174.336 6.15381 175.325 6.28575 176.32 6.54962C177.291 6.80119 178.204 7.24575 179.008 7.85831C179.805 8.46648 180.452 9.26564 180.95 10.2545C181.448 11.2447 181.697 12.4723 181.697 13.9381C181.697 15.3015 181.448 16.4744 180.95 17.4564C180.452 18.4384 179.805 19.2451 179.008 19.8753C178.205 20.5095 177.293 20.9832 176.32 21.2719C175.358 21.5673 174.359 21.719 173.355 21.7224H168V6.15381ZM172.928 19.3036C173.625 19.3036 174.322 19.2194 175.019 19.051C175.696 18.8915 176.337 18.6002 176.907 18.1928C177.469 17.79 177.928 17.2441 178.283 16.5549C178.638 15.8656 178.816 14.9936 178.816 13.9381C178.816 12.8242 178.638 11.9151 178.283 11.2114C177.928 10.5077 177.469 9.958 176.907 9.56219C176.337 9.16292 175.695 8.8862 175.019 8.74857C174.331 8.60292 173.631 8.52924 172.928 8.52868H170.688V19.3036H172.928ZM182.302 11.1674H185.14L187.999 18.8418H188.041L190.58 11.1674H193.247L188.404 23.9873C188.219 24.4711 188.02 24.8996 187.807 25.2734C187.606 25.632 187.346 25.952 187.039 26.2189C186.727 26.4828 186.368 26.6809 185.982 26.802C185.577 26.9339 185.09 26.9999 184.521 26.9999C184.308 26.9999 184.091 26.9892 183.871 26.9672C183.65 26.9446 183.426 26.9044 183.198 26.846L183.412 24.5591C183.582 24.6175 183.75 24.6577 183.913 24.6803C184.077 24.7023 184.23 24.713 184.372 24.713C184.642 24.713 184.87 24.6803 185.055 24.6143C185.239 24.5477 185.396 24.4453 185.524 24.3065C185.662 24.1524 185.777 23.9781 185.865 23.7894C185.965 23.584 186.071 23.3421 186.185 23.0638L186.697 21.7224L182.302 11.1674ZM200.061 13.9821C199.834 13.6742 199.52 13.4066 199.122 13.1798C198.724 12.9525 198.276 12.835 197.821 12.8386C197.429 12.8338 197.042 12.9242 196.69 13.1025C196.349 13.2784 196.178 13.5718 196.178 13.9821C196.178 14.3923 196.367 14.682 196.744 14.851C197.121 15.0194 197.672 15.1915 198.397 15.3674C198.781 15.4554 199.169 15.5729 199.559 15.7193C199.94 15.8602 200.299 16.0566 200.626 16.3023C200.947 16.5442 201.206 16.8445 201.405 17.2032C201.604 17.5626 201.704 17.9986 201.704 18.5119C201.704 19.1572 201.587 19.7031 201.351 20.1505C201.127 20.5852 200.805 20.9583 200.413 21.2386C200.022 21.517 199.567 21.7186 199.047 21.8437C198.529 21.9681 197.992 22.0303 197.437 22.0303C196.641 22.0303 195.853 21.8773 195.111 21.5792C194.357 21.2788 193.732 20.8504 193.234 20.2931L194.919 18.6659C195.204 19.0472 195.574 19.362 196.029 19.6114C196.484 19.8608 196.989 19.9852 197.544 19.9852C197.728 19.9852 197.917 19.9632 198.109 19.9193C198.301 19.8753 198.479 19.8062 198.642 19.7107C198.806 19.6152 198.938 19.487 199.037 19.3255C199.136 19.1641 199.186 18.9662 199.186 18.7318C199.186 18.292 198.991 17.9766 198.6 17.7863C198.209 17.5959 197.622 17.4049 196.84 17.2145C196.456 17.1266 196.082 17.0135 195.719 16.8734C195.371 16.7422 195.043 16.557 194.749 16.3243C194.464 16.0967 194.231 15.8076 194.066 15.4774C193.895 15.14 193.81 14.7222 193.81 14.224C193.81 13.6378 193.927 13.132 194.162 12.7067C194.389 12.2896 194.707 11.932 195.09 11.6619C195.487 11.3848 195.927 11.1803 196.392 11.0575C196.879 10.925 197.381 10.8585 197.885 10.8596C198.624 10.8596 199.346 10.9915 200.051 11.2554C200.755 11.5193 201.312 11.9226 201.725 12.4648L200.061 13.9821ZM203.59 11.1674H206.022V12.8606H206.064C206.292 12.3329 206.686 11.8679 207.249 11.464C207.81 11.0612 208.475 10.8596 209.243 10.8596C209.912 10.8596 210.484 10.9802 210.961 11.2221C211.416 11.4468 211.817 11.7738 212.134 12.1789C212.44 12.5748 212.664 13.029 212.806 13.5423C212.948 14.0556 213.019 14.5833 213.019 15.1255V21.7224H210.459V15.8732C210.459 15.5653 210.438 15.243 210.395 14.9056C210.358 14.5863 210.264 14.2769 210.118 13.9928C209.978 13.7239 209.777 13.4939 209.532 13.3224C209.282 13.1465 208.952 13.0585 208.539 13.0585C208.127 13.0585 207.771 13.1427 207.473 13.3111C207.174 13.4801 206.929 13.6962 206.737 13.9601C206.544 14.224 206.398 14.5281 206.299 14.873C206.2 15.2117 206.15 15.5635 206.15 15.9172V21.7224H203.59V11.1674ZM215.716 11.1674H218.276V21.7224H215.716V11.1674Z" fill="#222222"/>
<path d="M215.353 7.58325C215.353 7.15791 215.506 6.78785 215.812 6.47246C216.118 6.1577 216.505 6 216.975 6C217.444 6 217.839 6.15079 218.159 6.4511C218.479 6.75141 218.639 7.12901 218.639 7.58325C218.639 8.03749 218.479 8.41508 218.159 8.71539C217.839 9.01634 217.444 9.16649 216.975 9.16649C216.505 9.16649 216.118 9.00942 215.812 8.6934C215.506 8.37864 215.353 8.00859 215.353 7.58325Z" fill="#FF4A35"/>
<path d="M223.661 16.1151L219.97 11.1675H223.042L225.261 14.4439L227.544 11.1675H230.488L226.818 16.1151L231 21.7225H227.885L225.218 17.8743L222.53 21.7225H219.501L223.661 16.1151Z" fill="#222222"/>
</svg>
